<mxfile host="app.diagrams.net" agent="Mozilla/5.0 (Windows NT 10.0; Win64; x64) AppleWebKit/537.36 (KHTML, like Gecko) Chrome/131.0.0.0 Safari/537.36" version="26.0.5">
  <diagram id="R2lEEEUBdFMjLlhIrx00" name="Page-1">
    <mxGraphModel dx="819" dy="495" grid="1" gridSize="10" guides="1" tooltips="1" connect="1" arrows="1" fold="1" page="1" pageScale="1" pageWidth="850" pageHeight="1100" math="0" shadow="0" extFonts="Permanent Marker^https://fonts.googleapis.com/css?family=Permanent+Marker">
      <root>
        <mxCell id="0" />
        <mxCell id="1" parent="0" />
        <mxCell id="YGZLaBeO1jee29N05eSP-2" value="User" style="whiteSpace=wrap;html=1;align=center;" parent="1" vertex="1">
          <mxGeometry x="160" y="170" width="100" height="40" as="geometry" />
        </mxCell>
        <mxCell id="YGZLaBeO1jee29N05eSP-3" value="name" style="ellipse;whiteSpace=wrap;html=1;align=center;" parent="1" vertex="1">
          <mxGeometry x="70" y="80" width="80" height="30" as="geometry" />
        </mxCell>
        <mxCell id="YGZLaBeO1jee29N05eSP-4" style="edgeStyle=orthogonalEdgeStyle;rounded=0;orthogonalLoop=1;jettySize=auto;html=1;entryX=0;entryY=0.5;entryDx=0;entryDy=0;endArrow=none;endFill=0;exitX=1;exitY=0.5;exitDx=0;exitDy=0;" parent="1" source="YGZLaBeO1jee29N05eSP-10" target="YGZLaBeO1jee29N05eSP-2" edge="1">
          <mxGeometry relative="1" as="geometry">
            <mxPoint x="350" y="204.00000000000006" as="sourcePoint" />
            <mxPoint x="260" y="200" as="targetPoint" />
          </mxGeometry>
        </mxCell>
        <mxCell id="YGZLaBeO1jee29N05eSP-5" style="edgeStyle=orthogonalEdgeStyle;rounded=0;orthogonalLoop=1;jettySize=auto;html=1;endArrow=none;endFill=0;" parent="1" source="YGZLaBeO1jee29N05eSP-6" edge="1">
          <mxGeometry relative="1" as="geometry">
            <mxPoint x="170" y="210" as="targetPoint" />
            <Array as="points">
              <mxPoint x="170" y="235" />
              <mxPoint x="170" y="210" />
            </Array>
          </mxGeometry>
        </mxCell>
        <mxCell id="YGZLaBeO1jee29N05eSP-6" value="surname" style="ellipse;whiteSpace=wrap;html=1;align=center;" parent="1" vertex="1">
          <mxGeometry x="70" y="220" width="80" height="30" as="geometry" />
        </mxCell>
        <mxCell id="YGZLaBeO1jee29N05eSP-7" style="edgeStyle=orthogonalEdgeStyle;rounded=0;orthogonalLoop=1;jettySize=auto;html=1;entryX=0;entryY=0;entryDx=0;entryDy=0;endArrow=none;endFill=0;" parent="1" source="YGZLaBeO1jee29N05eSP-8" target="YGZLaBeO1jee29N05eSP-2" edge="1">
          <mxGeometry relative="1" as="geometry">
            <Array as="points">
              <mxPoint x="170" y="145" />
              <mxPoint x="170" y="170" />
            </Array>
          </mxGeometry>
        </mxCell>
        <mxCell id="YGZLaBeO1jee29N05eSP-8" value="id" style="ellipse;whiteSpace=wrap;html=1;align=center;fontStyle=4;" parent="1" vertex="1">
          <mxGeometry x="70" y="130" width="80" height="30" as="geometry" />
        </mxCell>
        <mxCell id="YGZLaBeO1jee29N05eSP-10" value="username" style="ellipse;whiteSpace=wrap;html=1;align=center;" parent="1" vertex="1">
          <mxGeometry x="70" y="175" width="80" height="30" as="geometry" />
        </mxCell>
        <mxCell id="YGZLaBeO1jee29N05eSP-11" value="password" style="ellipse;whiteSpace=wrap;html=1;align=center;" parent="1" vertex="1">
          <mxGeometry x="70" y="260" width="80" height="30" as="geometry" />
        </mxCell>
        <mxCell id="YGZLaBeO1jee29N05eSP-12" style="edgeStyle=orthogonalEdgeStyle;rounded=0;orthogonalLoop=1;jettySize=auto;html=1;endArrow=none;endFill=0;exitX=1;exitY=0.5;exitDx=0;exitDy=0;entryX=0.25;entryY=1;entryDx=0;entryDy=0;" parent="1" source="YGZLaBeO1jee29N05eSP-11" edge="1" target="YGZLaBeO1jee29N05eSP-2">
          <mxGeometry relative="1" as="geometry">
            <mxPoint x="360" y="210" as="sourcePoint" />
            <mxPoint x="180" y="210" as="targetPoint" />
            <Array as="points">
              <mxPoint x="185" y="275" />
            </Array>
          </mxGeometry>
        </mxCell>
        <mxCell id="YGZLaBeO1jee29N05eSP-13" value="0,N" style="text;html=1;align=center;verticalAlign=middle;resizable=0;points=[];autosize=1;strokeColor=none;fillColor=none;" parent="1" vertex="1">
          <mxGeometry x="254" y="161" width="40" height="30" as="geometry" />
        </mxCell>
        <mxCell id="YGZLaBeO1jee29N05eSP-14" value="unique" style="text;html=1;align=center;verticalAlign=middle;resizable=0;points=[];autosize=1;strokeColor=none;fillColor=none;" parent="1" vertex="1">
          <mxGeometry x="10" y="175" width="60" height="30" as="geometry" />
        </mxCell>
        <mxCell id="YGZLaBeO1jee29N05eSP-15" value="email" style="ellipse;whiteSpace=wrap;html=1;align=center;" parent="1" vertex="1">
          <mxGeometry x="160" y="40" width="80" height="30" as="geometry" />
        </mxCell>
        <mxCell id="YGZLaBeO1jee29N05eSP-17" value="unique" style="text;html=1;align=center;verticalAlign=middle;resizable=0;points=[];autosize=1;strokeColor=none;fillColor=none;" parent="1" vertex="1">
          <mxGeometry x="170" y="18" width="60" height="30" as="geometry" />
        </mxCell>
        <mxCell id="YGZLaBeO1jee29N05eSP-18" value="Score" style="ellipse;whiteSpace=wrap;html=1;align=center;" parent="1" vertex="1">
          <mxGeometry x="70" y="300" width="80" height="30" as="geometry" />
        </mxCell>
        <mxCell id="YGZLaBeO1jee29N05eSP-22" value="add friend" style="rhombus;whiteSpace=wrap;html=1;" parent="1" vertex="1">
          <mxGeometry x="320" y="230" width="80" height="80" as="geometry" />
        </mxCell>
        <mxCell id="YGZLaBeO1jee29N05eSP-24" style="edgeStyle=orthogonalEdgeStyle;rounded=0;orthogonalLoop=1;jettySize=auto;html=1;entryX=0.896;entryY=1.01;entryDx=0;entryDy=0;entryPerimeter=0;endArrow=none;endFill=0;exitX=0;exitY=0.5;exitDx=0;exitDy=0;" parent="1" source="YGZLaBeO1jee29N05eSP-22" target="YGZLaBeO1jee29N05eSP-2" edge="1">
          <mxGeometry relative="1" as="geometry">
            <Array as="points">
              <mxPoint x="250" y="270" />
              <mxPoint x="250" y="250" />
              <mxPoint x="250" y="250" />
            </Array>
          </mxGeometry>
        </mxCell>
        <mxCell id="YGZLaBeO1jee29N05eSP-25" style="edgeStyle=orthogonalEdgeStyle;rounded=0;orthogonalLoop=1;jettySize=auto;html=1;entryX=1;entryY=0.5;entryDx=0;entryDy=0;endArrow=none;endFill=0;" parent="1" source="YGZLaBeO1jee29N05eSP-22" target="YGZLaBeO1jee29N05eSP-2" edge="1">
          <mxGeometry relative="1" as="geometry">
            <Array as="points">
              <mxPoint x="360" y="185" />
              <mxPoint x="260" y="185" />
            </Array>
          </mxGeometry>
        </mxCell>
        <mxCell id="bnf2ZIn5TdCLEWTEawxb-1" style="edgeStyle=orthogonalEdgeStyle;rounded=0;orthogonalLoop=1;jettySize=auto;html=1;entryX=0.604;entryY=1;entryDx=0;entryDy=0;entryPerimeter=0;endArrow=none;endFill=0;exitX=0.998;exitY=0.553;exitDx=0;exitDy=0;exitPerimeter=0;" edge="1" parent="1" source="YGZLaBeO1jee29N05eSP-18" target="YGZLaBeO1jee29N05eSP-2">
          <mxGeometry relative="1" as="geometry">
            <Array as="points">
              <mxPoint x="150" y="315" />
              <mxPoint x="220" y="315" />
              <mxPoint x="220" y="260" />
              <mxPoint x="220" y="260" />
            </Array>
          </mxGeometry>
        </mxCell>
        <mxCell id="bnf2ZIn5TdCLEWTEawxb-2" value="0,N" style="text;html=1;align=center;verticalAlign=middle;resizable=0;points=[];autosize=1;strokeColor=none;fillColor=none;" vertex="1" parent="1">
          <mxGeometry x="242" y="206" width="40" height="30" as="geometry" />
        </mxCell>
        <mxCell id="bnf2ZIn5TdCLEWTEawxb-3" style="edgeStyle=orthogonalEdgeStyle;rounded=0;orthogonalLoop=1;jettySize=auto;html=1;entryX=0.273;entryY=0.009;entryDx=0;entryDy=0;entryPerimeter=0;endArrow=none;endFill=0;" edge="1" parent="1" source="YGZLaBeO1jee29N05eSP-3" target="YGZLaBeO1jee29N05eSP-2">
          <mxGeometry relative="1" as="geometry" />
        </mxCell>
        <mxCell id="bnf2ZIn5TdCLEWTEawxb-4" style="edgeStyle=orthogonalEdgeStyle;rounded=0;orthogonalLoop=1;jettySize=auto;html=1;entryX=0.403;entryY=0.024;entryDx=0;entryDy=0;entryPerimeter=0;endArrow=none;endFill=0;" edge="1" parent="1" source="YGZLaBeO1jee29N05eSP-15" target="YGZLaBeO1jee29N05eSP-2">
          <mxGeometry relative="1" as="geometry">
            <Array as="points" />
          </mxGeometry>
        </mxCell>
      </root>
    </mxGraphModel>
  </diagram>
</mxfile>
